<?xml version="1.0" encoding="utf-8"?>
<!-- Generator: Adobe Illustrator 16.0.0, SVG Export Plug-In . SVG Version: 6.00 Build 0)  -->
<!DOCTYPE svg PUBLIC "-//W3C//DTD SVG 1.1//EN" "http://www.w3.org/Graphics/SVG/1.1/DTD/svg11.dtd">
<svg version="1.1" id="Шар_1" xmlns="http://www.w3.org/2000/svg" xmlns:xlink="http://www.w3.org/1999/xlink" x="0px" y="0px"
	 width="14px" height="11.013px" viewBox="0 0 14 11.013" enable-background="new 0 0 14 11.013" xml:space="preserve">
<path fill="none" d="M12.6,0.275C12.18,0.138,9.59,0,7,0c-2.59,0-5.18,0.138-5.6,0.275C0.28,0.619,0,3.029,0,5.507
	c0,2.478,0.28,4.888,1.399,5.231c0.42,0.138,3.01,0.275,5.6,0.275c2.59,0,5.18-0.138,5.6-0.275c1.12-0.343,1.4-2.753,1.4-5.231
	C14,3.029,13.72,0.619,12.6,0.275z M5.6,8.604V2.409l4.2,3.098L5.6,8.604z"/>
</svg>
